<svg width="26" height="26" viewBox="0 0 26 26" fill="none" xmlns="http://www.w3.org/2000/svg">
<path d="M5.70216 1.05255C6.52696 0.548735 7.60401 0.808946 8.10783 1.63374L13.5812 10.5943L22.5418 5.12093C23.3666 4.61712 24.4437 4.87733 24.9475 5.70213C25.4513 6.52692 25.1911 7.60398 24.3663 8.10779L15.4057 13.5812L20.8791 22.5418C21.3829 23.3666 21.1227 24.4436 20.2979 24.9474C19.4731 25.4512 18.396 25.191 17.8922 24.3662L12.4188 15.4057L3.45826 20.879C2.63346 21.3829 1.55641 21.1226 1.0526 20.2979C0.548785 19.4731 0.808995 18.396 1.63379 17.8922L10.5944 12.4188L5.12097 3.45821C4.61716 2.63341 4.87737 1.55636 5.70216 1.05255Z" fill="#E7E7E7"/>
</svg>
